<?xml version="1.0" encoding="UTF-8"?>
<svg id="Camada_1" xmlns="http://www.w3.org/2000/svg" version="1.1" viewBox="0 0 32 32">
  <!-- Generator: Adobe Illustrator 29.6.0, SVG Export Plug-In . SVG Version: 2.1.1 Build 207)  -->
  <defs>
    <style>
      .st0 {
        fill: #654192;
      }

      .st1, .st2 {
        fill: #fff;
      }

      .st2 {
        fill-rule: evenodd;
      }

      .st3 {
        fill: #f7ab05;
      }

      .st4 {
        fill: #049899;
      }

      .st5 {
        fill: #d82885;
      }
    </style>
  </defs>
  <g>
    <g>
      <path class="st3" d="M15.49,30.15c-.42-.37-10.36-9.28-10.36-18.52C5.13,5.85,10.01,1.14,16,1.14s10.87,4.7,10.87,10.48c0,9.24-9.94,18.15-10.36,18.52l-.51.45-.51-.45Z"/>
      <path class="st1" d="M16,1.87c5.59,0,10.11,4.37,10.11,9.76,0,9.03-10.11,17.99-10.11,17.99,0,0-10.11-8.96-10.11-17.99C5.89,6.24,10.41,1.87,16,1.87M16,.42C9.59.42,4.38,5.45,4.38,11.63c0,2.26.57,4.68,1.7,7.2.88,1.96,2.11,3.99,3.64,6.03,2.59,3.45,5.15,5.73,5.26,5.83l1.02.9,1.02-.9c.11-.1,2.67-2.38,5.26-5.83,1.53-2.04,2.76-4.07,3.64-6.03,1.13-2.52,1.7-4.94,1.7-7.2C27.62,5.45,22.41.42,16,.42h0Z"/>
    </g>
    <g>
      <path class="st5" d="M15.77,29.85s-2.58-2.3-5.1-5.66c-2.34-3.11-5.12-7.82-5.12-12.57C5.55,6.07,10.24,1.55,16,1.55c4.76,0,8.92,3.11,10.11,7.56l.05.18-3.88,3.51-.23-.23s-3.74-3.69-8.13-3.69c-.7,0-1.4.09-2.06.28-.23.25-1.08,1.29-1.48,2.91-.6,2.49.13,5.92,2.17,8.57,1.44,1.86,3.69,2.81,6.7,2.81.83,0,1.73-.89,2.66-1.04l.75-.12-.42.61c-2.78,4.05-5.99,6.91-6.02,6.94l-.23.2-.23-.2Z"/>
      <path class="st1" d="M16,1.87c4.71,0,8.66,3.11,9.78,7.32l-3.49,3.16s-3.78-3.79-8.37-3.79c-.73,0-1.48.1-2.24.32,0,0-4.49,5.61.62,12.23,1.7,2.2,4.28,2.94,6.97,2.94.9,0,2.02-.34,2.71-1.31-2.79,4.06-5.97,6.88-5.97,6.88,0,0-10.11-8.96-10.11-17.99C5.89,6.24,10.41,1.87,16,1.87M16,1.23c-5.94,0-10.78,4.67-10.78,10.4,0,2.15.55,4.46,1.64,6.87.86,1.91,2.05,3.89,3.55,5.88,2.54,3.38,5.04,5.61,5.15,5.7l.45.4.45-.4c.13-.12,3.27-2.92,6.08-7l.84-1.22-.91.14c-.86.66-2.39,1.12-3.2,1.12-2.9,0-5.06-.9-6.43-2.68-1.98-2.56-2.69-5.89-2.12-8.27.34-1.44,1.07-2.41,1.35-2.73.6-.16,1.23-.24,1.87-.24,4.24,0,7.85,3.56,7.89,3.6l.46.46.48-.43,3.49-3.16.29-.26-.1-.37c-1.23-4.59-5.52-7.8-10.43-7.8h0Z"/>
    </g>
    <g>
      <path class="st0" d="M8.73,21.33c-1.98-3.25-3.04-6.33-3.16-9.15-.12-2.83.92-5.51,2.94-7.54,1.98-1.99,4.64-3.09,7.5-3.09,2.77,0,5.37,1.04,7.34,2.91,1.96,1.87,3.06,4.37,3.1,7.03v.16s-.65.5-.65.5l-3.67.56-.12-.19s-2.72-4.39-5.03-5.26c-.28-.1-.58-.16-.9-.16-2.44,0-5.3,3.09-6.2,5.22-1.13,2.68-1.31,5.63-.53,8.77l.52,2.1-1.13-1.86Z"/>
      <path class="st1" d="M16,1.87s0,0,0,0c5.53,0,10.01,4.29,10.1,9.61,0,0,0,.02,0,.02l-.44.34s0,0-.01,0l-3.34.51s-.02,0-.03-.01c-.17-.27-2.82-4.49-5.19-5.38-.33-.12-.67-.18-1.02-.18-2.57,0-5.53,3.1-6.51,5.42-.87,2.06-1.49,5.03-.59,8.81,0,.03-.03.04-.05.02-1.61-2.68-2.9-5.76-3.03-8.86-.24-5.59,4.3-10.29,10.1-10.29M16,1.23c-2.95,0-5.7,1.13-7.74,3.19-2.08,2.09-3.16,4.86-3.03,7.78.13,2.87,1.2,6,3.21,9.3h0s2.56,3.32,2.56,3.32c.02.02.26.61.25.58l-1.38-3.15c-.13-.3-.23-.61-.3-.93,0,0,0,0,0,0-.76-3.07-.5-6.25.6-8.87.98-2.32,3.77-5.02,5.89-5.02.27,0,.54.05.78.14,1.83.69,4.13,3.93,4.87,5.12l.22.36s.02.01.03.01l.43-.07,3.36-.51.17-.03s0,0,.01,0l.13-.1.45-.35.24-.19s0-.01,0-.02v-.15c-.04-2.86-1.24-5.62-3.39-7.58-2-1.82-4.61-2.82-7.37-2.83h-.01Z"/>
    </g>
    <g>
      <path class="st4" d="M16.21,19.61c.05-.04,5.48-3.74,5.25-8.3-.25-4.91-5.9-6.73-9.4-6.73-1.18,0-2.23.18-3.03.52l-1.36.58,1.03-1.03c1.98-1.97,4.63-3.05,7.47-3.05,5.74,0,10.41,4.5,10.41,10.04,0,.63-.23,1.24-.64,1.72-2.15,2.55-4.21,4.67-9.45,6.75h0c-.32.13-.56-.3-.28-.49h0Z"/>
      <path class="st1" d="M16.17,1.87c5.59,0,10.11,4.37,10.11,9.76,0,0,0,0,0,0,0,.56-.21,1.1-.57,1.54-2.18,2.6-4.18,4.62-9.33,6.67,0,0,5.61-3.77,5.37-8.54-.24-4.82-5.56-7-9.69-7-1.2,0-2.31.18-3.15.54,1.84-1.83,4.41-2.97,7.26-2.97M16.38,20.36c5.58-1.84,7.61-4.25,9.78-6.83.45-.54.7-1.21.7-1.89h0s0,0,0,0c0-5.69-4.8-10.32-10.7-10.32h0c-2.91,0-5.64,1.12-7.67,3.14l-2.07,2.06.88-.5c1.04-.59,2.21-.97,3.41-1.08.48-.04.95-.07,1.35-.07,3.39,0,8.87,1.76,9.11,6.47.22,4.4-5.07,8.02-5.12,8.06h0"/>
    </g>
  </g>
  <path class="st2" d="M16.38,20.36s3.61-3.69,4.71-5.44c.58-.92.87-2.36.87-3.47,0-3.02-2.41-5.62-5.58-5.3-2.78.28-5.06,2.44-5.06,5.46,0,1.11.29,2.15.87,3.06,1.1,1.75,2.64,4.05,4.19,5.69h0Z"/>
</svg>